<svg width="31" height="31" viewBox="0 0 31 31" fill="none" xmlns="http://www.w3.org/2000/svg">
<path d="M22.0473 7.0459H9.87053C8.7743 7.0459 7.82507 7.78739 7.55766 8.85166L6.02464 14.9826C5.83927 15.7294 6.00333 16.5039 6.4742 17.1122C6.94828 17.7173 7.661 18.0667 8.43017 18.0667H11.8777V20.4882C11.9075 22.2035 13.0123 23.5619 14.9844 24.3097C15.4265 24.4759 15.9229 24.4162 16.3128 24.1488C16.7028 23.8793 16.9371 23.434 16.9371 22.9599V20.6172C17.3867 18.82 19.0806 17.6257 19.6207 17.2848H22.0508C23.4006 17.2848 24.5 16.1854 24.5 14.8356V9.4961C24.4968 8.14525 23.3974 7.04581 22.0476 7.04581L22.0473 7.0459ZM15.3196 20.3392L15.3004 20.4287V22.6702C14.4439 22.2941 13.5362 21.6197 13.5171 20.4724V16.4284L8.43314 16.4273C8.17107 16.4273 7.92816 16.3101 7.76731 16.1024C7.60645 15.8946 7.54891 15.6304 7.61496 15.3769L9.14799 9.24594C9.23215 8.91354 9.52937 8.68131 9.8735 8.68131L18.573 8.68238V16.0108C17.7132 16.5808 15.834 18.0616 15.3193 20.3393L15.3196 20.3392ZM22.86 14.8325C22.86 15.28 22.4946 15.6454 22.0471 15.6454H20.2094V8.68022H22.0471C22.4946 8.68022 22.86 9.04562 22.86 9.49308V14.8325Z" fill="#666666"/>
</svg>
